<svg width="48.000000" height="48.000000" viewBox="0 0 48 48" fill="none" xmlns="http://www.w3.org/2000/svg" xmlns:xlink="http://www.w3.org/1999/xlink">
	<desc>
			Created with Pixso.
	</desc>
	<defs/>
	<path id="Subtract" d="M24 48C37.25 48 48 37.25 48 24C48 10.74 37.25 0 24 0C10.74 0 0 10.74 0 24C0 37.25 10.74 48 24 48ZM24 48C24 48 24 24 48 24C24 24 24 0 24 0C24 0 24 24 0 24C23.57 24.17 24 48 24 48Z" fill="#FFFFFF" fill-opacity="1.000000" fill-rule="evenodd"/>
	<path id="Subtract" d="M24 48C10.74 48 0 37.25 0 24C0 10.74 10.74 0 24 0C37.25 0 48 10.74 48 24C48 37.25 37.25 48 24 48ZM24 48C24 48 24 24 48 24M48 24C24 24 24 0 24 0M24 0C24 0 24 24 0 24M0 24C23.57 24.17 24 48 24 48" stroke="#979797" stroke-opacity="0" stroke-width="0.000000"/>
</svg>
